<svg id="Livello_1" data-name="Livello 1" xmlns="http://www.w3.org/2000/svg" xmlns:xlink="http://www.w3.org/1999/xlink" viewBox="0 0 30.25 31.91"><defs><style>.cls-1{fill:none;}.cls-2{fill:url(#Sfumatura_senza_nome_276);}.cls-3{fill:url(#Sfumatura_senza_nome_237);}.cls-4{fill:#2f6698;}.cls-5{fill:#b0c4c9;}.cls-6{fill:url(#Sfumatura_senza_nome_326);}.cls-7{fill:#fff;}.cls-8{fill:#4f97c5;}.cls-9{fill:#86d1d7;}.cls-10{clip-path:url(#clip-path);}</style><radialGradient id="Sfumatura_senza_nome_276" cx="13.94" cy="13.94" r="13.94" gradientUnits="userSpaceOnUse"><stop offset="0" stop-color="#b3b3b3"/><stop offset="1" stop-color="gray" stop-opacity="0"/></radialGradient><radialGradient id="Sfumatura_senza_nome_237" cx="1.4" cy="-21.15" r="13.91" gradientTransform="translate(14.48 39.48) scale(1.03 1.04)" gradientUnits="userSpaceOnUse"><stop offset="0" stop-color="gray"/><stop offset="0.18" stop-color="gray" stop-opacity="0.86"/><stop offset="0.55" stop-color="gray" stop-opacity="0.5"/><stop offset="1" stop-color="gray" stop-opacity="0"/></radialGradient><radialGradient id="Sfumatura_senza_nome_326" cx="13.94" cy="13.94" r="8.34" gradientUnits="userSpaceOnUse"><stop offset="0" stop-color="#dce3e4"/><stop offset="1" stop-color="#dce3e4" stop-opacity="0"/></radialGradient><clipPath id="clip-path"><path class="cls-1" d="M13.15,17.81c0-.1,2.24-6.31,2.24-6.31h4.72V18Z"/></clipPath></defs><title>Tavola disegno 125</title><circle class="cls-2" cx="13.94" cy="13.94" r="13.94"/><ellipse class="cls-3" cx="15.92" cy="17.38" rx="14.32" ry="14.54"/><path class="cls-4" d="M16.79,30.91l-2.34-1.4a1.16,1.16,0,0,0-1.19,0l-2.34,1.4a1.16,1.16,0,0,1-1.75-1V17.62h9.37v12.3A1.16,1.16,0,0,1,16.79,30.91Z"/><circle class="cls-5" cx="13.94" cy="13.94" r="11.26"/><circle class="cls-6" cx="13.94" cy="13.94" r="8.34"/><circle class="cls-1" cx="13.94" cy="13.94" r="11.26"/><path class="cls-7" d="M13.94,4.27a9.67,9.67,0,1,1-9.66,9.67,9.67,9.67,0,0,1,9.66-9.67m0-2.28A11.95,11.95,0,0,0,2,13.94,11.95,11.95,0,0,0,13.94,25.88,11.94,11.94,0,0,0,22.39,5.49,11.87,11.87,0,0,0,13.94,2Z"/><rect class="cls-8" x="7.11" y="9.23" width="13.63" height="9.4"/><rect class="cls-7" x="7.7" y="11.09" width="12.57" height="7.07"/><rect class="cls-7" x="16.79" y="9.76" width="0.85" height="0.85" rx="0.4" ry="0.4"/><rect class="cls-9" x="18.08" y="9.76" width="0.85" height="0.85" rx="0.16" ry="0.16"/><rect class="cls-4" x="19.37" y="9.76" width="0.85" height="0.85" rx="0.4" ry="0.4"/><g class="cls-10"><rect class="cls-4" x="17" y="11.57" width="3.01" height="0.51"/><rect class="cls-4" x="16.99" y="14.16" width="3.01" height="0.81"/><rect class="cls-9" x="7.97" y="12.57" width="7.53" height="2.41"/><rect class="cls-9" x="16.98" y="15.46" width="2.99" height="2.41"/><rect class="cls-8" x="16.98" y="12.57" width="3.03" height="1.6"/><rect class="cls-4" x="8.08" y="15.55" width="7.41" height="0.25"/><rect class="cls-4" x="8.08" y="16.04" width="7.41" height="0.25"/><rect class="cls-4" x="8.08" y="16.52" width="7.41" height="0.25"/><rect class="cls-4" x="8.08" y="17" width="7.41" height="0.25"/><polygon class="cls-7" points="18.84 13.37 18.22 13.01 18.22 13.72 18.84 13.37"/></g><path class="cls-8" d="M12.07,13.05v.83l-2.17.86,2.17.86v.83L9.14,15.22v-1Z"/><path class="cls-8" d="M14.71,11.55h1l-2.13,6h-1Z"/></svg>